<?xml version="1.0" standalone="no"?>
<!DOCTYPE svg PUBLIC "-//W3C//DTD SVG 20010904//EN"
 "http://www.w3.org/TR/2001/REC-SVG-20010904/DTD/svg10.dtd">
<svg version="1.0" xmlns="http://www.w3.org/2000/svg"
 width="629.000000pt" height="626.000000pt" viewBox="0 0 629.000000 626.000000"
 preserveAspectRatio="xMidYMid meet">

<g transform="translate(0.000000,626.000000) scale(0.100000,-0.100000)"
fill="#139dcb" stroke="none">
<path d="M2000 6104 c-83 -22 -140 -53 -197 -107 -97 -92 -135 -187 -134 -343
0 -108 17 -178 59 -245 104 -163 310 -249 504 -208 163 34 305 169 348 328 6
24 12 78 11 120 0 309 -294 535 -591 455z m106 -79 c8 -43 -1 -764 -10 -772
-3 -4 -9 -3 -13 0 -10 10 -17 619 -8 720 7 91 20 111 31 52z m82 -370 c2 -391
-2 -447 -28 -405 -11 16 -14 750 -4 788 4 13 12 21 18 19 8 -3 12 -118 14
-402z m-143 3 c-4 -216 -9 -395 -12 -398 -9 -10 -114 54 -143 87 -111 126
-138 354 -61 518 36 78 72 120 135 155 96 56 89 85 81 -362z m222 377 c139
-58 221 -229 210 -435 -10 -187 -88 -302 -234 -345 l-23 -6 0 400 c0 221 2
401 5 401 3 0 22 -7 42 -15z"/>
<path d="M3350 6115 c0 -3 10 -19 23 -36 22 -31 22 -32 22 -424 0 -392 0 -393
-22 -424 -13 -16 -23 -33 -23 -36 0 -3 45 -5 100 -5 55 0 100 3 100 6 0 3 -10
20 -22 37 -22 31 -23 38 -20 227 2 107 5 196 6 197 1 1 113 5 248 9 l246 7 7
-48 c4 -26 6 -116 3 -200 -4 -134 -7 -157 -26 -189 -12 -21 -22 -39 -22 -42 0
-2 45 -4 100 -4 55 0 100 3 100 7 0 4 -10 17 -22 31 l-23 24 0 398 c0 397 0
398 23 429 12 16 22 33 22 36 0 3 -45 5 -100 5 -55 0 -100 -3 -100 -7 0 -4 11
-23 25 -43 25 -36 25 -41 23 -186 l-3 -149 -255 0 -255 0 -3 154 c-2 151 -2
154 23 187 14 18 25 35 25 38 0 3 -45 6 -100 6 -55 0 -100 -2 -100 -5z"/>
<path d="M4868 6115 c-4 -4 4 -21 17 -37 l25 -30 0 -397 c0 -383 -1 -399 -20
-424 -11 -14 -20 -28 -20 -31 0 -3 45 -6 100 -6 55 0 100 2 100 5 0 3 -10 19
-22 36 -21 28 -23 43 -26 190 l-4 159 49 0 c60 0 137 -35 179 -81 17 -19 57
-72 90 -118 65 -93 156 -175 204 -186 38 -8 140 3 140 15 0 5 -29 23 -64 40
-75 35 -141 102 -247 252 -38 53 -74 100 -79 103 -16 10 -12 17 31 70 63 76
89 138 89 215 0 78 -24 138 -68 169 -63 45 -108 54 -292 58 -96 3 -178 2 -182
-2z m344 -70 c113 -75 125 -308 18 -370 -27 -15 -53 -20 -120 -20 l-85 0 -3
165 c-3 182 1 221 25 246 25 24 114 13 165 -21z"/>
<path d="M2535 6060 c4 -25 9 -56 12 -69 6 -23 6 -23 19 7 7 17 23 36 36 43
26 14 202 19 215 6 4 -5 9 -179 11 -388 l3 -380 -26 -44 -26 -45 106 0 c112 0
113 1 75 45 -15 18 -18 57 -24 335 -4 173 -4 352 0 397 l7 82 71 6 c94 9 152
-6 174 -46 22 -37 28 -37 35 4 3 17 9 46 12 62 l6 30 -356 0 -357 0 7 -45z"/>
<path d="M4306 6100 c-14 -5 -12 -9 14 -28 l30 -23 0 -390 c0 -406 -1 -417
-44 -451 -20 -17 -10 -18 216 -18 130 0 239 3 241 8 3 4 8 36 12 71 l7 64 -31
-35 c-61 -70 -141 -86 -221 -45 -25 12 -51 33 -57 47 -13 26 -19 303 -7 334 5
13 23 16 95 16 88 0 90 -1 128 -35 l38 -35 7 38 c3 20 6 52 6 70 l0 32 -57 -7
c-32 -5 -94 -8 -138 -8 l-80 0 -3 171 -2 172 53 6 c85 11 154 -2 193 -36 18
-16 34 -25 37 -21 3 4 8 31 11 58 l7 50 -219 1 c-120 0 -226 -2 -236 -6z"/>
<path d="M750 6083 c0 -3 -23 -189 -51 -412 l-50 -406 -32 -32 -31 -33 113 0
113 0 -27 32 c-26 30 -27 37 -22 108 6 92 44 381 53 404 12 32 -1 55 231 -383
40 -75 76 -137 81 -139 5 -1 51 75 102 170 165 305 220 390 220 342 0 -11 20
-100 44 -199 62 -257 62 -254 32 -298 -15 -21 -26 -39 -26 -40 0 -1 37 1 83 5
45 3 88 7 95 7 9 1 9 6 -2 24 -20 30 -40 125 -81 392 -44 283 -72 445 -78 451
-11 11 -65 -76 -142 -229 -102 -202 -236 -461 -240 -465 -9 -9 -67 101 -172
323 -118 249 -191 385 -205 385 -4 0 -8 -3 -8 -7z"/>
<path d="M2941 4979 c-564 -59 -1098 -399 -1392 -885 -193 -319 -279 -657
-266 -1039 31 -896 692 -1633 1587 -1771 138 -21 401 -21 540 0 783 120 1394
699 1555 1476 32 154 44 412 26 565 -42 356 -172 676 -385 950 -35 44 -118
133 -185 198 -391 377 -935 562 -1480 506z m277 -26 c-43 -2 -113 -2 -155 0
-43 1 -8 3 77 3 85 0 120 -2 78 -3z m-270 -10 c-10 -2 -26 -2 -35 0 -10 3 -2
5 17 5 19 0 27 -2 18 -5z m420 0 c-10 -2 -26 -2 -35 0 -10 3 -2 5 17 5 19 0
27 -2 18 -5z m-495 -10 c-7 -2 -21 -2 -30 0 -10 3 -4 5 12 5 17 0 24 -2 18 -5z
m570 0 c-7 -2 -21 -2 -30 0 -10 3 -4 5 12 5 17 0 24 -2 18 -5z m-630 -10 c-7
-2 -19 -2 -25 0 -7 3 -2 5 12 5 14 0 19 -2 13 -5z m680 0 c-7 -2 -19 -2 -25 0
-7 3 -2 5 12 5 14 0 19 -2 13 -5z m-736 -9 c-3 -3 -12 -4 -19 -1 -8 3 -5 6 6
6 11 1 17 -2 13 -5z m786 -1 c-7 -2 -19 -2 -25 0 -7 3 -2 5 12 5 14 0 19 -2
13 -5z m-826 -9 c-3 -3 -12 -4 -19 -1 -8 3 -5 6 6 6 11 1 17 -2 13 -5z m870 0
c-3 -3 -12 -4 -19 -1 -8 3 -5 6 6 6 11 1 17 -2 13 -5z m-910 -10 c-3 -3 -12
-4 -19 -1 -8 3 -5 6 6 6 11 1 17 -2 13 -5z m628 -4 c701 -66 1304 -549 1518
-1215 70 -217 92 -381 84 -615 -17 -449 -183 -840 -496 -1164 -273 -281 -626
-464 -1005 -521 -135 -20 -397 -20 -532 0 -292 44 -588 172 -825 357 -195 152
-394 398 -501 618 -237 487 -238 1058 -3 1545 321 666 1024 1064 1760 995z
m322 4 c-3 -3 -12 -4 -19 -1 -8 3 -5 6 6 6 11 1 17 -2 13 -5z m-1047 -29 c-46
-18 -64 -17 -25 0 17 8 37 14 45 14 8 0 -1 -7 -20 -14z m1154 -1 c26 -9 45
-18 43 -20 -2 -2 -28 5 -58 15 -30 11 -49 20 -43 20 6 1 32 -6 58 -15z m86
-34 c8 -5 11 -10 5 -10 -5 0 -17 5 -25 10 -8 5 -10 10 -5 10 6 0 17 -5 25 -10z
m-1390 -20 c-8 -5 -19 -10 -25 -10 -5 0 -3 5 5 10 8 5 20 10 25 10 6 0 3 -5
-5 -10z m1440 0 c8 -5 11 -10 5 -10 -5 0 -17 5 -25 10 -8 5 -10 10 -5 10 6 0
17 -5 25 -10z m-1521 -34 c-10 -9 -69 -36 -69 -32 0 7 52 35 64 36 5 0 7 -2 5
-4z m1606 -6 c3 -6 -1 -7 -9 -4 -18 7 -21 14 -7 14 6 0 13 -4 16 -10z m-1710
-48 c-18 -15 -85 -54 -85 -48 0 3 19 16 43 30 43 26 59 33 42 18z m1825 -18
c0 -2 -9 0 -20 6 -11 6 -20 13 -20 16 0 2 9 0 20 -6 11 -6 20 -13 20 -16z m50
-30 c0 -2 -9 0 -20 6 -11 6 -20 13 -20 16 0 2 9 0 20 -6 11 -6 20 -13 20 -16z
m-2030 -47 c0 -2 -35 -31 -77 -64 -141 -109 -274 -254 -416 -453 -15 -22 -16
-22 -7 -2 23 47 162 222 243 304 47 47 122 116 168 152 81 64 89 70 89 63z
m2255 -122 c37 -36 42 -42 11 -15 -28 25 -77 65 -108 89 -32 24 -58 45 -58 48
0 10 98 -67 155 -122z m260 -277 c41 -54 79 -108 85 -120 9 -20 9 -20 -7 2
-82 114 -144 193 -188 240 -28 30 -57 64 -64 75 -34 50 107 -110 174 -197z
m-3035 -168 c-6 -11 -13 -20 -16 -20 -2 0 0 9 6 20 6 11 13 20 16 20 2 0 0 -9
-6 -20z m3150 0 c6 -11 8 -20 6 -20 -3 0 -10 9 -16 20 -6 11 -8 20 -6 20 3 0
10 -9 16 -20z m-3207 -105 c-20 -41 -39 -73 -41 -71 -4 5 66 146 73 146 3 0
-12 -34 -32 -75z m3263 4 c19 -39 34 -73 32 -75 -2 -2 -21 30 -41 71 -20 41
-35 75 -32 75 3 0 21 -32 41 -71z m-3325 -136 c-12 -20 -14 -14 -5 12 4 9 9
14 11 11 3 -2 0 -13 -6 -23z m3389 -8 c0 -5 -5 -3 -10 5 -5 8 -10 20 -10 25 0
6 5 3 10 -5 5 -8 10 -19 10 -25z m-3409 -42 c-12 -20 -14 -14 -5 12 4 9 9 14
11 11 3 -2 0 -13 -6 -23z m3429 -8 c0 -5 -5 -3 -10 5 -5 8 -10 20 -10 25 0 6
5 3 10 -5 5 -8 10 -19 10 -25z m-3483 -157 c-3 -8 -6 -5 -6 6 -1 11 2 17 5 13
3 -3 4 -12 1 -19z m3530 0 c-3 -8 -6 -5 -6 6 -1 11 2 17 5 13 3 -3 4 -12 1
-19z m-3540 -40 c-3 -8 -6 -5 -6 6 -1 11 2 17 5 13 3 -3 4 -12 1 -19z m3550 0
c-3 -8 -6 -5 -6 6 -1 11 2 17 5 13 3 -3 4 -12 1 -19z m-3560 -40 c-3 -8 -6 -5
-6 6 -1 11 2 17 5 13 3 -3 4 -12 1 -19z m3570 0 c-3 -8 -6 -5 -6 6 -1 11 2 17
5 13 3 -3 4 -12 1 -19z m-3580 -50 c-3 -7 -5 -2 -5 12 0 14 2 19 5 13 2 -7 2
-19 0 -25z m3590 0 c-3 -7 -5 -2 -5 12 0 14 2 19 5 13 2 -7 2 -19 0 -25z
m-3600 -55 c-3 -10 -5 -4 -5 12 0 17 2 24 5 18 2 -7 2 -21 0 -30z m3610 0 c-3
-10 -5 -4 -5 12 0 17 2 24 5 18 2 -7 2 -21 0 -30z m-3620 -70 c-3 -10 -5 -4
-5 12 0 17 2 24 5 18 2 -7 2 -21 0 -30z m3630 0 c-3 -10 -5 -4 -5 12 0 17 2
24 5 18 2 -7 2 -21 0 -30z m-3640 -120 c-2 -16 -4 -3 -4 27 0 30 2 43 4 28 2
-16 2 -40 0 -55z m3650 10 c-2 -16 -4 -5 -4 22 0 28 2 40 4 28 2 -13 2 -35 0
-50z m-3650 -280 c-2 -16 -4 -3 -4 27 0 30 2 43 4 28 2 -16 2 -40 0 -55z
m3650 0 c-2 -16 -4 -3 -4 27 0 30 2 43 4 28 2 -16 2 -40 0 -55z m-3640 -90
c-3 -10 -5 -2 -5 17 0 19 2 27 5 18 2 -10 2 -26 0 -35z m3630 0 c-3 -10 -5 -2
-5 17 0 19 2 27 5 18 2 -10 2 -26 0 -35z m-3620 -65 c-3 -7 -5 -2 -5 12 0 14
2 19 5 13 2 -7 2 -19 0 -25z m3610 0 c-3 -7 -5 -2 -5 12 0 14 2 19 5 13 2 -7
2 -19 0 -25z m-3600 -50 c-3 -8 -6 -5 -6 6 -1 11 2 17 5 13 3 -3 4 -12 1 -19z
m3590 0 c-3 -8 -6 -5 -6 6 -1 11 2 17 5 13 3 -3 4 -12 1 -19z m-3580 -50 c-3
-7 -5 -2 -5 12 0 14 2 19 5 13 2 -7 2 -19 0 -25z m3570 0 c-3 -7 -5 -2 -5 12
0 14 2 19 5 13 2 -7 2 -19 0 -25z m-3560 -40 c-3 -8 -6 -5 -6 6 -1 11 2 17 5
13 3 -3 4 -12 1 -19z m3550 0 c-3 -8 -6 -5 -6 6 -1 11 2 17 5 13 3 -3 4 -12 1
-19z m-3530 -70 c-3 -8 -6 -5 -6 6 -1 11 2 17 5 13 3 -3 4 -12 1 -19z m3510 0
c-3 -8 -6 -5 -6 6 -1 11 2 17 5 13 3 -3 4 -12 1 -19z m-3463 -128 c5 -17 4
-20 -2 -10 -5 8 -13 26 -16 40 -5 17 -4 20 2 10 5 -8 13 -26 16 -40z m3425 11
c-6 -18 -13 -30 -15 -28 -2 2 1 18 7 36 6 18 13 30 15 28 2 -2 -1 -18 -7 -36z
m-3390 -96 c0 -5 -6 1 -14 15 -8 14 -14 30 -14 35 0 6 6 -1 14 -15 8 -14 14
-29 14 -35z m3357 18 c-8 -15 -15 -25 -16 -21 0 12 23 58 27 54 3 -2 -2 -17
-11 -33z m-3317 -100 c12 -24 19 -43 16 -43 -5 0 -45 75 -45 86 0 11 6 2 29
-43z m3271 -2 c-28 -56 -35 -52 -8 4 12 24 23 43 26 41 2 -2 -6 -22 -18 -45z
m-45 -81 c-9 -16 -18 -30 -21 -30 -2 0 2 14 11 30 9 17 18 30 21 30 2 0 -2
-13 -11 -30z m-3175 -10 c6 -11 8 -20 6 -20 -3 0 -10 9 -16 20 -6 11 -8 20 -6
20 3 0 10 -9 16 -20z m51 -85 l10 -20 -16 20 c-9 11 -21 29 -26 40 l-10 20 16
-20 c9 -11 21 -29 26 -40z m3093 43 c-21 -36 -85 -128 -89 -128 -3 0 16 32 41
70 26 39 49 70 51 70 2 0 1 -6 -3 -12z m-3054 -98 c12 -16 19 -30 16 -30 -2 0
-14 14 -26 30 -12 17 -19 30 -16 30 2 0 14 -13 26 -30z m66 -87 c21 -26 33
-44 27 -40 -14 9 -77 87 -70 87 3 0 22 -21 43 -47z m2864 7 c-17 -22 -37 -43
-43 -47 -6 -4 6 14 27 40 21 26 40 47 43 47 3 0 -10 -18 -27 -40z m-2730 -155
c52 -52 92 -95 90 -95 -3 0 -48 43 -100 95 -52 52 -92 95 -90 95 3 0 48 -43
100 -95z m2605 14 c-44 -44 -102 -99 -130 -122 -27 -23 6 13 75 80 69 67 127
122 130 123 2 0 -31 -36 -75 -81z m-2475 -134 c13 -14 21 -25 18 -25 -2 0 -15
11 -28 25 -13 14 -21 25 -18 25 2 0 15 -11 28 -25z m100 -82 c0 -7 -58 36 -66
49 -4 7 9 -1 29 -16 20 -16 37 -30 37 -33z m2185 47 c-3 -5 -20 -19 -38 -30
-32 -22 -32 -22 3 9 37 32 45 37 35 21z m-2060 -125 l20 -16 -20 10 c-11 5
-29 17 -40 26 l-20 16 20 -10 c11 -5 29 -17 40 -26z m1910 19 c-26 -20 -55
-36 -55 -30 0 5 63 46 70 46 3 -1 -4 -8 -15 -16z m-1719 -122 c-5 -4 -166 76
-166 83 0 3 38 -14 85 -37 46 -23 83 -44 81 -46z m1634 73 c0 -6 -137 -75
-147 -75 -6 1 134 77 145 80 1 0 2 -2 2 -5z m-1570 -95 c8 -5 11 -10 5 -10 -5
0 -17 5 -25 10 -8 5 -10 10 -5 10 6 0 17 -5 25 -10z m1380 0 c-8 -5 -19 -10
-25 -10 -5 0 -3 5 5 10 8 5 20 10 25 10 6 0 3 -5 -5 -10z m-1250 -47 c30 -11
31 -12 6 -8 -16 4 -43 13 -60 20 -23 11 -25 13 -6 8 14 -3 41 -12 60 -20z
m1154 12 c-17 -8 -44 -16 -60 -20 -16 -3 -6 4 21 14 57 22 86 26 39 6z m-1057
-41 c-3 -3 -12 -4 -19 -1 -8 3 -5 6 6 6 11 1 17 -2 13 -5z m930 0 c-3 -3 -12
-4 -19 -1 -8 3 -5 6 6 6 11 1 17 -2 13 -5z m-890 -10 c-3 -3 -12 -4 -19 -1 -8
3 -5 6 6 6 11 1 17 -2 13 -5z m850 0 c-3 -3 -12 -4 -19 -1 -8 3 -5 6 6 6 11 1
17 -2 13 -5z m-804 -11 c-7 -2 -19 -2 -25 0 -7 3 -2 5 12 5 14 0 19 -2 13 -5z
m760 0 c-7 -2 -19 -2 -25 0 -7 3 -2 5 12 5 14 0 19 -2 13 -5z m-700 -10 c-7
-2 -21 -2 -30 0 -10 3 -4 5 12 5 17 0 24 -2 18 -5z m650 0 c-7 -2 -19 -2 -25
0 -7 3 -2 5 12 5 14 0 19 -2 13 -5z m-590 -10 c-7 -2 -21 -2 -30 0 -10 3 -4 5
12 5 17 0 24 -2 18 -5z m530 0 c-7 -2 -21 -2 -30 0 -10 3 -4 5 12 5 17 0 24
-2 18 -5z m-440 -10 c-13 -2 -33 -2 -45 0 -13 2 -3 4 22 4 25 0 35 -2 23 -4z
m360 0 c-13 -2 -33 -2 -45 0 -13 2 -3 4 22 4 25 0 35 -2 23 -4z m-150 -10
c-29 -2 -77 -2 -105 0 -29 2 -6 3 52 3 58 0 81 -1 53 -3z"/>
<path d="M3080 4816 c0 -25 5 -48 11 -51 15 -10 18 -4 21 45 2 36 0 45 -14 48
-15 3 -18 -4 -18 -42z"/>
<path d="M3145 4851 c-9 -16 7 -92 19 -88 6 2 12 25 14 50 2 36 0 47 -12 47
-8 0 -17 -4 -21 -9z"/>
<path d="M2918 4843 c-21 -5 -22 -14 -7 -65 15 -55 29 -46 29 17 0 30 -1 54
-2 54 -2 -1 -11 -3 -20 -6z"/>
<path d="M2990 4828 c0 -39 12 -68 26 -68 10 0 14 13 14 45 0 38 -3 45 -20 45
-14 0 -20 -7 -20 -22z"/>
<path d="M3230 4805 c0 -33 4 -45 15 -45 8 0 15 6 15 14 0 7 3 28 6 45 6 27 4
31 -15 31 -18 0 -21 -6 -21 -45z"/>
<path d="M3316 4834 c-12 -31 -7 -84 8 -84 19 0 37 81 22 92 -16 11 -23 10
-30 -8z"/>
<path d="M3397 4834 c-11 -11 -8 -94 3 -94 14 0 32 48 28 74 -3 21 -20 31 -31
20z"/>
<path d="M2826 4803 c13 -52 24 -74 34 -68 11 7 13 54 4 79 -3 9 -15 16 -25
16 -16 0 -18 -5 -13 -27z"/>
<path d="M2751 4810 c-20 -12 2 -90 26 -90 13 0 14 7 9 43 -8 49 -16 59 -35
47z"/>
<path d="M3477 4813 c-10 -10 -8 -93 2 -93 10 0 31 54 31 81 0 19 -20 26 -33
12z"/>
<path d="M2673 4792 c-8 -5 -8 -17 2 -45 7 -21 16 -41 18 -44 10 -10 25 7 22
25 -16 78 -17 80 -42 64z"/>
<path d="M3556 4778 c-9 -34 -7 -78 3 -78 8 0 23 31 36 78 5 17 2 22 -13 22
-12 0 -22 -9 -26 -22z"/>
<path d="M2603 4773 c-17 -6 -16 -28 2 -63 23 -44 39 -38 32 11 -6 45 -15 59
-34 52z"/>
<path d="M3626 4749 c-8 -44 -8 -69 3 -69 13 0 43 69 37 86 -10 25 -33 15 -40
-17z"/>
<path d="M2523 4743 c-18 -6 -16 -30 4 -64 24 -41 37 -36 30 12 -6 45 -15 59
-34 52z"/>
<path d="M3711 4719 c-14 -41 -14 -62 1 -57 15 5 49 69 42 80 -11 18 -33 6
-43 -23z"/>
<path d="M3781 4701 c-20 -54 -23 -71 -9 -71 14 0 33 26 48 65 7 18 5 24 -10
28 -13 3 -21 -3 -29 -22z"/>
<path d="M2441 4711 c-12 -8 -12 -14 -2 -40 14 -33 38 -57 47 -48 6 6 -14 77
-25 89 -3 4 -12 3 -20 -1z"/>
<path d="M2370 4680 c-11 -7 -11 -14 -1 -39 15 -34 38 -57 48 -47 7 7 -14 83
-25 90 -4 3 -14 1 -22 -4z"/>
<path d="M3854 4655 c-16 -40 -17 -52 -5 -60 5 -3 21 14 35 37 18 31 22 44 13
50 -21 13 -28 9 -43 -27z"/>
<path d="M3924 4615 c-17 -42 -18 -58 -1 -53 17 6 58 69 51 79 -12 20 -36 7
-50 -26z"/>
<path d="M2285 4629 c-9 -13 36 -79 53 -79 15 0 9 31 -14 68 -16 24 -29 28
-39 11z"/>
<path d="M3991 4578 c-19 -38 -20 -58 -3 -58 9 0 52 63 52 77 0 6 -6 13 -14
16 -10 4 -21 -8 -35 -35z"/>
<path d="M2233 4603 c-19 -7 -16 -22 13 -60 36 -47 53 -29 25 26 -12 22 -22
41 -24 40 -1 0 -8 -3 -14 -6z"/>
<path d="M4070 4537 c-37 -60 -20 -78 24 -26 30 35 32 45 11 53 -10 4 -22 -5
-35 -27z"/>
<path d="M2150 4545 c-10 -12 -8 -21 14 -50 45 -59 65 -34 25 31 -24 39 -23
39 -39 19z"/>
<path d="M2798 4543 c-9 -10 -19 -28 -23 -41 -13 -44 -65 -90 -123 -112 -81
-30 -96 -42 -143 -112 -23 -35 -57 -79 -76 -99 -34 -36 -34 -37 -19 -66 17
-35 78 -90 112 -103 12 -5 57 -12 99 -16 44 -4 82 -13 91 -21 18 -19 18 -94 0
-138 -8 -19 -18 -35 -21 -35 -18 0 -59 32 -140 108 -103 97 -141 119 -221 128
-54 7 -60 10 -128 81 -40 40 -77 73 -84 73 -18 0 -32 -44 -32 -98 0 -50 -17
-86 -77 -159 -30 -36 -37 -55 -48 -130 -7 -49 -16 -100 -20 -115 -10 -40 1
-62 40 -81 56 -27 105 -31 155 -12 143 52 140 52 161 25 10 -14 26 -46 34 -72
9 -25 26 -53 38 -61 26 -17 87 -130 87 -162 0 -12 11 -31 25 -43 14 -12 25
-32 25 -44 0 -12 15 -36 35 -54 19 -17 35 -41 35 -53 0 -13 14 -30 40 -46 23
-14 46 -37 52 -50 9 -19 19 -25 45 -25 18 0 33 2 33 5 0 3 -26 31 -58 63 -32
31 -40 41 -18 21 23 -20 54 -43 69 -51 16 -8 34 -25 40 -38 7 -14 27 -28 45
-34 17 -5 32 -15 32 -22 0 -18 -2 -18 -44 7 l-36 21 -9 -25 c-11 -29 -2 -77
27 -134 25 -48 27 -57 11 -47 -6 3 -15 1 -19 -6 -5 -8 -14 -5 -31 12 -13 12
-62 43 -109 68 -170 90 -268 218 -293 383 -13 84 -24 102 -56 92 -28 -8 -27
-35 4 -109 13 -33 23 -62 20 -64 -7 -8 -39 64 -56 128 -16 63 -18 65 -48 64
-17 -1 -28 2 -25 7 18 30 -54 51 -97 29 -30 -17 -23 -29 25 -41 35 -9 45 -16
49 -36 4 -19 1 -23 -12 -17 -38 15 -51 16 -57 1 -4 -13 -10 -14 -29 -5 -13 6
-31 8 -40 4 -16 -6 -50 -74 -42 -83 3 -2 24 5 47 17 35 18 44 19 51 8 5 -7 9
-16 9 -20 0 -3 24 -20 53 -36 104 -59 145 -133 125 -225 -9 -45 -8 -52 8 -64
10 -7 28 -13 41 -13 22 0 23 4 24 68 0 37 3 60 6 52 14 -36 174 -197 241 -242
88 -60 184 -106 235 -114 46 -8 47 -19 2 -45 -20 -12 -40 -30 -46 -40 -8 -17
-6 -19 19 -19 34 0 85 37 78 55 -3 8 5 20 17 28 12 8 31 38 42 67 11 29 37 72
58 95 20 24 37 48 37 53 0 5 -19 17 -42 27 -48 19 -129 75 -109 75 7 0 26 -11
43 -25 16 -14 37 -25 45 -25 9 0 30 -9 47 -19 17 -11 37 -17 43 -13 16 10 33
57 33 92 0 16 5 32 10 35 15 9 12 -26 -5 -76 -52 -147 -30 -313 53 -402 17
-18 23 -30 16 -35 -6 -4 -16 -16 -22 -27 -16 -31 -181 -69 -297 -68 -143 1
-205 32 -285 142 -24 33 -50 61 -57 61 -6 0 -19 -10 -27 -22 -14 -20 -14 -24
1 -40 22 -25 13 -23 -27 7 -31 23 -34 23 -46 7 -8 -10 -13 -12 -14 -4 0 6 -10
12 -23 12 -27 0 -72 -43 -62 -59 9 -15 62 -14 71 1 5 8 9 6 14 -7 4 -11 29
-25 69 -37 35 -11 61 -21 59 -24 -3 -2 -18 0 -34 6 -16 5 -51 14 -78 19 -43 8
-49 7 -53 -10 -3 -10 -14 -19 -24 -19 -20 0 -49 -36 -49 -60 0 -8 5 -22 10
-30 8 -12 13 -11 37 11 24 23 38 27 95 28 38 1 80 -4 100 -12 46 -20 96 -79
103 -124 3 -21 10 -46 16 -55 5 -10 5 -18 1 -18 -7 0 -16 -14 -40 -62 -9 -19
56 -6 76 15 27 28 28 43 5 56 -16 9 -16 10 5 11 21 0 22 3 16 58 -4 32 -13 62
-22 69 -12 10 -9 11 19 8 19 -2 77 -10 129 -16 149 -19 291 -15 394 10 49 12
91 20 93 18 2 -3 -1 -16 -7 -31 -13 -35 -13 -66 0 -66 6 0 22 11 35 25 27 26
34 80 13 88 -10 3 -10 7 -2 17 8 8 10 38 7 88 -5 69 -3 81 19 112 14 21 53 51
98 76 44 25 95 64 124 96 42 46 46 49 31 19 -14 -27 -14 -35 -4 -42 17 -10 13
-13 -38 -28 -45 -12 -55 -33 -25 -50 22 -13 7 -14 -18 -1 -27 14 -70 -4 -70
-30 0 -11 7 -23 15 -26 20 -8 19 -24 -1 -24 -14 0 -16 -8 -11 -49 3 -28 1 -53
-5 -59 -7 -7 -6 -16 1 -30 9 -17 7 -21 -11 -25 -18 -5 -20 -11 -15 -46 4 -31
2 -41 -9 -41 -9 0 -14 -11 -14 -29 0 -21 -6 -32 -20 -36 -11 -3 -20 -12 -20
-18 -1 -15 -67 -87 -80 -87 -5 0 -15 -9 -22 -20 -7 -11 -19 -20 -27 -20 -8 0
-22 -7 -31 -15 -9 -8 -61 -29 -116 -47 -97 -31 -103 -32 -279 -32 -155 0 -191
3 -260 22 -125 35 -236 95 -295 159 -74 81 -88 138 -99 388 -10 241 -24 289
-105 370 -95 94 -225 100 -329 14 -127 -104 -86 -303 68 -336 74 -16 156 13
142 50 -3 9 -30 19 -68 26 -72 12 -106 32 -120 69 -34 89 68 180 170 152 46
-12 101 -70 120 -127 8 -23 16 -128 21 -273 8 -256 13 -282 75 -396 64 -115
174 -188 355 -234 261 -67 629 -3 863 149 104 68 104 68 79 36 -12 -15 -20
-30 -18 -33 7 -6 68 33 90 57 22 24 12 48 -12 30 -10 -7 4 10 31 37 26 27 66
80 90 116 67 106 68 107 57 75 -15 -42 -13 -87 4 -87 17 0 61 123 52 146 -4
10 -13 14 -22 10 -13 -5 -14 -2 -9 11 28 66 47 162 52 271 3 67 2 122 -2 122
-4 0 -14 -8 -21 -17 -11 -15 -13 -5 -14 73 0 78 -3 96 -23 125 -28 42 -66 49
-103 20 -15 -12 -30 -21 -33 -21 -4 0 -15 16 -26 36 -12 22 -39 47 -70 65 -54
31 -55 37 -1 15 18 -7 47 -31 64 -52 29 -35 33 -37 57 -26 74 34 131 -9 149
-113 13 -76 13 -75 51 -59 46 19 79 18 97 -3 39 -45 49 -149 23 -224 -17 -47
-14 -69 9 -69 22 0 56 -49 56 -79 0 -54 -49 -129 -121 -187 -38 -30 -69 -60
-69 -67 0 -7 7 -21 15 -31 29 -39 13 -104 -35 -144 -47 -38 -142 -74 -231 -87
-45 -7 -47 -8 -52 -47 -3 -22 -14 -49 -24 -60 -52 -58 -206 -103 -403 -118
-211 -15 -254 -21 -239 -31 19 -12 241 -10 304 2 28 5 75 12 105 15 30 3 73
14 95 24 22 11 54 22 70 25 l30 6 -30 -16 -30 -15 40 6 c145 21 392 174 533
330 56 62 118 155 93 140 -19 -12 -12 10 34 105 25 51 45 99 45 106 0 24 -18
14 -40 -23 -29 -45 -34 -39 -15 17 22 63 46 207 55 329 l7 105 1 -85 c0 -47
-3 -119 -7 -160 -4 -41 -7 -77 -5 -78 1 -2 12 13 23 35 26 49 26 32 1 -36 -25
-64 -23 -79 7 -52 28 26 38 114 30 265 -8 154 -45 274 -131 420 -90 151 -272
336 -330 336 -19 0 -25 -9 -39 -59 -20 -72 -64 -111 -165 -147 -82 -29 -136
-30 -187 -4 -22 11 -46 20 -55 20 -12 1 -12 3 3 11 13 8 24 5 44 -10 33 -27
127 -30 137 -5 15 39 8 44 -61 44 -86 0 -116 8 -108 28 5 13 -5 14 -64 9 -61
-5 -69 -4 -64 10 5 14 -1 15 -51 9 -56 -7 -57 -7 -47 13 6 11 16 23 21 26 16
10 58 98 65 138 10 53 -24 118 -80 154 -48 30 -55 54 -29 91 45 64 187 94 549
115 l40 2 22 75 c26 90 29 175 7 230 -18 45 -17 54 21 158 39 109 25 123 -75
76 -49 -23 -62 -25 -120 -19 -119 14 -161 10 -268 -25 -57 -18 -111 -40 -119
-48 -20 -20 -13 -94 13 -148 10 -21 44 -58 74 -83 65 -52 73 -64 65 -92 -9
-28 -74 -99 -90 -99 -7 0 -16 8 -20 18 -3 9 -25 67 -47 127 -51 140 -68 166
-127 204 -44 29 -71 64 -71 95 0 27 -31 116 -46 131 -20 19 -27 19 -46 -2z
m587 -163 c-3 -5 -19 -10 -35 -10 -16 0 -32 5 -35 10 -4 6 10 10 35 10 25 0
39 -4 35 -10z m-745 -88 c0 -9 -25 -33 -47 -46 -20 -11 -15 12 7 34 21 21 40
26 40 12z m-520 -427 c0 -16 -47 -51 -56 -42 -6 6 40 57 51 57 3 0 5 -7 5 -15z
m361 -477 c21 -43 37 -78 35 -78 -6 0 -96 166 -96 177 0 13 17 -15 61 -99z
m1273 9 c9 -23 16 -52 16 -64 0 -12 5 -25 11 -29 9 -5 10 8 7 45 -3 28 -1 51
3 51 12 0 63 -72 79 -109 15 -36 29 -33 22 5 -4 23 -3 25 15 16 38 -21 99
-166 133 -324 13 -56 33 -73 25 -20 -2 15 -7 47 -10 72 -6 45 -6 45 14 25 23
-23 52 -123 50 -175 -1 -25 -4 -18 -11 28 -5 34 -13 62 -18 62 -4 0 -9 -90
-12 -200 -2 -139 -7 -203 -16 -212 -9 -9 -12 12 -12 102 0 204 -37 408 -96
535 -23 51 -28 56 -31 35 -2 -14 6 -59 17 -100 39 -141 52 -219 45 -258 l-8
-37 -14 45 c-7 25 -26 101 -42 170 -30 127 -87 280 -107 287 -8 3 -11 -27 -11
-99 0 -57 -4 -123 -10 -148 l-10 -45 -2 65 c-2 95 -20 229 -35 258 l-14 26
-15 -30 c-8 -16 -24 -64 -36 -108 -12 -43 -28 -90 -36 -105 l-14 -26 0 25 c0
14 6 43 14 65 8 22 15 50 15 62 0 20 -2 20 -67 -13 -38 -18 -81 -36 -98 -40
-16 -3 12 15 63 41 51 25 100 44 109 43 13 -2 22 12 36 60 10 34 22 62 27 62
4 0 15 -19 24 -43z m-1214 -117 c6 -11 8 -20 6 -20 -3 0 -10 9 -16 20 -6 11
-8 20 -6 20 3 0 10 -9 16 -20z m-315 -50 l20 -25 -22 19 c-13 11 -23 24 -23
29 0 6 1 8 3 6 1 -2 11 -15 22 -29z m57 -57 c30 -36 30 -47 0 -19 -18 17 -32
31 -32 33 0 9 19 1 32 -14z m339 -10 c13 -16 12 -17 -3 -4 -17 13 -22 21 -14
21 2 0 10 -8 17 -17z m-26 -741 c-3 -3 -11 0 -18 7 -9 10 -8 11 6 5 10 -3 15
-9 12 -12z m1447 -124 c-7 -7 -12 -8 -12 -2 0 14 12 26 19 19 2 -3 -1 -11 -7
-17z m-81 -91 l-23 -22 17 28 c10 15 20 25 23 22 3 -3 -5 -16 -17 -28z m-121
-217 c-25 -22 -49 -40 -54 -40 -5 0 11 18 35 40 24 21 49 39 54 39 6 0 -10
-17 -35 -39z m-95 -70 c-15 -24 -270 -149 -281 -137 -2 2 26 16 63 31 38 14
102 46 143 71 83 49 84 49 75 35z"/>
<path d="M4131 4479 c-31 -54 -19 -61 27 -16 31 31 34 39 22 47 -23 14 -24 13
-49 -31z"/>
<path d="M2085 4501 c-7 -13 7 -40 34 -65 30 -28 39 -11 16 31 -21 39 -39 51
-50 34z"/>
<path d="M4208 4453 c-25 -29 -39 -61 -29 -67 12 -8 74 51 69 66 -7 19 -23 20
-40 1z"/>
<path d="M2022 4448 c-9 -9 -5 -19 20 -45 51 -52 67 -37 26 24 -26 37 -29 38
-46 21z"/>
<path d="M4262 4393 c-30 -44 -33 -51 -23 -58 5 -3 26 9 46 26 28 25 33 34 24
45 -16 20 -25 17 -47 -13z"/>
<path d="M1962 4397 c-10 -12 -7 -20 18 -46 18 -17 36 -31 41 -31 18 0 9 30
-19 61 -24 27 -29 29 -40 16z"/>
<path d="M3706 4371 c-16 -18 -21 -76 -10 -118 7 -27 21 -32 98 -40 36 -3 71
-14 85 -25 13 -10 29 -18 36 -18 7 0 18 -13 24 -30 5 -16 14 -30 20 -30 14 0
38 -71 67 -200 25 -115 43 -159 67 -162 6 0 17 -2 24 -2 7 -1 19 -10 27 -21
19 -24 20 -9 6 50 -6 22 -24 101 -40 175 -52 234 -103 308 -265 384 -120 57
-121 57 -139 37z"/>
<path d="M4321 4325 c-38 -43 -32 -63 10 -38 46 27 55 41 37 59 -13 14 -18 11
-47 -21z"/>
<path d="M1903 4339 c-19 -19 -17 -24 23 -54 48 -37 61 -20 21 28 -26 31 -34
36 -44 26z"/>
<path d="M4371 4266 c-20 -21 -29 -36 -22 -40 21 -14 89 43 76 63 -10 17 -19
13 -54 -23z"/>
<path d="M1845 4273 c-7 -20 38 -63 68 -63 23 0 22 4 -14 45 -35 40 -44 43
-54 18z"/>
<path d="M4421 4206 c-21 -22 -29 -36 -22 -41 17 -10 76 28 76 50 0 30 -19 27
-54 -9z"/>
<path d="M1796 4213 c-8 -19 3 -32 43 -56 48 -28 36 24 -13 56 -22 15 -25 15
-30 0z"/>
<path d="M3826 4167 c-2 -6 -9 -37 -15 -68 -11 -52 -15 -58 -53 -75 -22 -10
-55 -18 -72 -19 -24 0 -32 -5 -34 -22 -3 -17 3 -26 21 -32 14 -5 27 -15 29
-21 2 -6 21 -14 43 -17 34 -4 46 0 78 26 21 16 47 33 57 36 18 6 35 34 25 43
-3 3 -22 -7 -42 -21 -46 -33 -54 -28 -20 13 45 53 50 146 9 161 -16 6 -24 5
-26 -4z"/>
<path d="M4476 4141 c-41 -42 -29 -55 22 -25 35 21 41 28 31 40 -16 20 -21 18
-53 -15z"/>
<path d="M1745 4150 c-9 -14 11 -38 46 -56 41 -21 46 1 9 36 -34 32 -45 36
-55 20z"/>
<path d="M3900 4093 c1 -36 2 -37 15 -19 19 26 19 56 0 56 -11 0 -15 -11 -15
-37z"/>
<path d="M4527 4079 c-60 -50 -43 -68 25 -26 32 19 35 24 24 39 -12 16 -16 15
-49 -13z"/>
<path d="M1695 4080 c-9 -15 10 -35 46 -50 43 -18 49 -3 11 31 -35 31 -47 35
-57 19z"/>
<path d="M4570 4001 c-38 -31 -37 -46 1 -36 37 10 62 32 56 50 -9 21 -18 19
-57 -14z"/>
<path d="M1644 3999 c-4 -7 2 -17 12 -23 71 -42 106 -37 53 8 -33 28 -54 33
-65 15z"/>
<path d="M4609 3937 c-19 -12 -32 -27 -29 -32 12 -24 93 16 83 41 -7 19 -14
18 -54 -9z"/>
<path d="M1606 3934 c-3 -9 -6 -17 -6 -19 0 -8 83 -35 91 -29 13 8 -7 31 -42
50 -35 18 -36 17 -43 -2z"/>
<path d="M3330 3914 c-174 -32 -260 -62 -285 -100 -20 -31 -20 -29 21 -55 20
-12 49 -43 65 -68 40 -63 39 -111 -6 -197 -19 -37 -35 -70 -35 -75 0 -4 15 -3
32 2 49 13 86 11 96 -7 7 -13 15 -12 63 9 30 13 72 27 92 31 29 5 37 11 33 24
-19 62 -18 71 8 96 31 32 82 34 145 6 46 -21 61 -19 61 9 0 29 33 51 77 51 42
0 101 -32 136 -73 11 -12 37 -41 59 -65 l40 -42 30 25 c34 29 48 31 87 10 67
-34 117 -142 130 -278 l6 -71 44 -8 c54 -9 75 -28 97 -84 22 -59 15 -217 -13
-290 l-20 -51 30 -24 c26 -22 29 -30 28 -80 -1 -88 -65 -241 -145 -344 -16
-22 -74 -86 -128 -141 -54 -56 -98 -105 -98 -108 0 -35 262 226 338 337 118
171 171 328 179 527 9 210 -30 366 -137 555 -52 92 -202 250 -293 309 -186
121 -335 166 -562 171 -82 2 -161 1 -175 -1z m335 -36 c62 -13 214 -70 199
-75 -6 -2 -55 13 -110 33 -68 25 -119 37 -164 39 -39 1 -66 7 -68 15 -5 13 49
8 143 -12z m-170 -24 c143 -39 139 -38 130 -24 -6 9 -1 10 16 5 51 -16 139
-66 149 -84 5 -11 37 -32 71 -47 53 -24 107 -70 95 -81 -2 -3 -37 18 -78 45
-145 99 -272 153 -429 186 -117 24 -109 5 16 -38 89 -31 209 -85 202 -92 -2
-3 -40 9 -83 25 -117 42 -247 73 -301 69 l-48 -3 101 -52 c93 -48 170 -100
161 -109 -2 -3 -55 20 -118 51 -71 34 -101 53 -79 49 19 -4 33 -4 30 -1 -4 4
-71 33 -145 62 -19 7 -19 8 5 15 14 5 44 8 68 9 23 1 42 6 42 11 0 6 -6 10
-12 10 -9 0 -8 4 2 10 26 17 111 10 205 -16z m-280 -74 l50 -19 -50 5 -50 6
43 -39 c23 -21 48 -49 55 -63 7 -14 25 -31 40 -38 15 -7 27 -20 27 -28 0 -23
-14 -16 -60 32 -77 78 -80 78 -73 -19 4 -55 2 -91 -5 -103 -9 -15 -10 -3 -6
51 5 57 2 79 -15 118 -17 38 -18 47 -6 47 23 0 18 11 -17 41 -33 28 -33 28 -8
28 14 0 48 -9 75 -19z m979 -159 c30 -33 6 -25 -31 11 -48 46 -52 27 -6 -34
47 -63 83 -122 83 -134 0 -5 -5 -1 -11 10 -6 10 -14 14 -18 9 -3 -6 -35 27
-69 71 -50 64 -55 71 -20 36 24 -25 53 -58 65 -75 12 -16 23 -25 23 -19 0 6
-27 48 -60 94 -33 46 -60 89 -60 97 0 16 71 -30 104 -66z m260 -464 c51 -203
33 -462 -39 -587 -20 -34 -18 -24 4 36 67 176 67 424 1 617 -42 123 -43 127
-11 62 15 -33 36 -91 45 -128z m-120 83 c3 -14 -3 -7 -13 15 -11 22 -19 47
-19 55 0 17 22 -32 32 -70z m46 -749 c-28 -56 -35 -52 -8 4 12 24 23 43 26 41
2 -2 -6 -22 -18 -45z"/>
<path d="M4310 3882 c-27 -13 -36 -24 -38 -48 l-3 -32 91 -3 c82 -4 94 -6 111
-28 22 -26 25 -86 7 -125 -17 -39 -57 -59 -127 -65 l-64 -6 35 -45 c32 -42 37
-45 81 -44 122 1 228 165 187 288 -16 48 -56 95 -97 112 -46 20 -141 18 -183
-4z"/>
<path d="M4658 3869 c-69 -35 -64 -62 7 -35 46 18 50 23 37 43 -5 8 -17 6 -44
-8z"/>
<path d="M1577 3863 c-15 -15 -5 -32 24 -42 66 -23 80 -6 25 28 -37 23 -40 24
-49 14z"/>
<path d="M4688 3789 c-41 -21 -50 -39 -19 -39 33 0 71 19 71 34 0 24 -13 25
-52 5z"/>
<path d="M1536 3784 c-8 -22 -9 -20 22 -32 55 -21 72 -24 72 -10 0 14 -26 33
-65 48 -18 7 -25 5 -29 -6z"/>
<path d="M4712 3719 c-23 -12 -42 -25 -42 -30 0 -13 44 -11 75 3 27 12 29 16
17 35 -6 10 -18 8 -50 -8z"/>
<path d="M1503 3695 c-8 -22 0 -27 52 -32 57 -7 59 9 5 31 -49 20 -49 20 -57
1z"/>
<path d="M4740 3634 c-41 -18 -44 -20 -36 -32 4 -6 21 -6 48 0 50 11 50 11 42
32 -7 19 -10 19 -54 0z"/>
<path d="M1483 3625 c-8 -22 0 -27 52 -32 54 -7 59 8 11 31 -42 20 -55 20 -63
1z"/>
<path d="M1460 3542 c0 -23 18 -32 66 -32 58 0 37 22 -43 45 -18 5 -23 2 -23
-13z"/>
<path d="M4747 3548 c-40 -14 -28 -34 19 -29 46 4 54 8 54 27 0 16 -31 17 -73
2z"/>
<path d="M4786 3476 c-52 -15 -59 -36 -13 -36 45 0 67 9 67 25 0 21 -12 23
-54 11z"/>
<path d="M1440 3460 c0 -13 7 -20 19 -20 10 0 33 -3 50 -6 43 -9 42 18 -2 34
-48 17 -67 15 -67 -8z"/>
<path d="M1427 3380 c-3 -12 2 -20 17 -24 32 -9 74 -7 81 3 7 13 -3 18 -53 29
-35 8 -41 7 -45 -8z"/>
<path d="M4783 3389 c-49 -14 -40 -29 17 -29 43 0 50 3 50 20 0 22 -15 24 -67
9z"/>
<path d="M4791 3321 c-47 -13 -36 -31 18 -31 44 0 51 3 51 20 0 21 -21 25 -69
11z"/>
<path d="M1420 3300 c0 -17 7 -20 50 -20 54 0 66 15 24 30 -43 17 -74 13 -74
-10z"/>
<path d="M4787 3233 c-33 -9 -11 -28 36 -31 42 -3 47 -1 47 17 0 17 -6 21 -32
20 -18 -1 -41 -3 -51 -6z"/>
<path d="M1410 3211 c0 -18 6 -21 44 -21 25 0 48 5 51 11 10 15 4 18 -48 25
-43 6 -47 5 -47 -15z"/>
<path d="M1410 3131 c0 -18 6 -21 38 -21 35 0 72 14 62 24 -3 2 -26 7 -52 11
-44 7 -48 6 -48 -14z"/>
<path d="M4777 3144 c-14 -14 6 -24 49 -24 32 0 44 4 44 15 0 11 -11 15 -43
15 -24 0 -47 -3 -50 -6z"/>
<path d="M4770 3061 c0 -14 12 -19 58 -27 38 -6 42 -5 42 15 0 19 -6 21 -50
21 -27 0 -50 -4 -50 -9z"/>
<path d="M1410 3039 c0 -18 4 -20 33 -14 84 17 93 35 17 35 -44 0 -50 -3 -50
-21z"/>
<path d="M4772 2988 c6 -18 81 -29 90 -14 15 22 8 26 -43 26 -36 0 -49 -4 -47
-12z"/>
<path d="M1438 2973 c-10 -2 -18 -13 -18 -24 0 -15 5 -19 18 -15 9 2 32 8 50
11 18 4 31 12 29 18 -4 13 -50 18 -79 10z"/>
<path d="M4760 2906 c0 -20 80 -33 91 -15 13 21 1 29 -47 29 -31 0 -44 -4 -44
-14z"/>
<path d="M1449 2902 c-21 -2 -26 -7 -22 -23 3 -10 10 -19 17 -19 24 0 86 21
86 29 0 10 -44 17 -81 13z"/>
<path d="M4750 2831 c0 -9 53 -31 76 -31 8 0 14 9 14 20 0 17 -7 20 -45 20
-25 0 -45 -4 -45 -9z"/>
<path d="M3806 2823 c-13 -13 -5 -51 15 -77 24 -31 39 -34 39 -7 0 48 -35 102
-54 84z"/>
<path d="M1451 2811 c-8 -5 -11 -16 -8 -25 5 -13 12 -13 48 -3 56 16 63 37 12
37 -21 0 -44 -4 -52 -9z"/>
<path d="M4730 2751 c0 -11 58 -41 79 -41 10 0 24 30 17 38 -3 2 -25 7 -51 9
-31 4 -45 2 -45 -6z"/>
<path d="M1467 2733 c-14 -13 -7 -33 12 -33 27 0 81 21 81 31 0 10 -83 12 -93
2z"/>
<path d="M4710 2677 c0 -16 73 -43 89 -33 20 13 11 25 -26 35 -50 14 -63 14
-63 -2z"/>
<path d="M1503 2653 c-25 -5 -31 -31 -9 -39 17 -7 86 22 86 35 0 11 -34 12
-77 4z"/>
<path d="M2060 2620 c0 -5 5 -10 10 -10 6 0 10 5 10 10 0 6 -4 10 -10 10 -5 0
-10 -4 -10 -10z"/>
<path d="M4690 2605 c0 -12 57 -45 79 -45 12 0 16 40 4 40 -5 0 -25 4 -45 9
-29 7 -38 6 -38 -4z"/>
<path d="M1523 2580 c-25 -10 -22 -40 4 -40 20 0 73 29 73 40 0 12 -47 12 -77
0z"/>
<path d="M2050 2546 c0 -14 5 -26 10 -26 6 0 10 9 10 19 0 11 -4 23 -10 26 -6
4 -10 -5 -10 -19z"/>
<path d="M4660 2527 c0 -12 59 -47 79 -47 21 0 20 31 -2 39 -51 19 -77 22 -77
8z"/>
<path d="M1559 2499 c-20 -7 -26 -15 -22 -29 3 -11 7 -20 10 -20 13 0 83 42
83 50 0 12 -36 12 -71 -1z"/>
<path d="M2020 2477 c0 -13 6 -31 13 -41 13 -17 14 -17 20 -2 8 19 -8 66 -23
66 -5 0 -10 -10 -10 -23z"/>
<path d="M4630 2450 c0 -13 61 -51 74 -47 24 8 15 29 -18 42 -42 18 -56 19
-56 5z"/>
<path d="M1603 2425 c-35 -15 -42 -32 -18 -41 17 -7 86 36 79 48 -7 11 -24 9
-61 -7z"/>
<path d="M2010 2375 c0 -25 28 -85 39 -85 16 0 13 36 -4 70 -17 32 -35 40 -35
15z"/>
<path d="M4590 2382 c0 -11 28 -36 56 -51 17 -8 25 -7 34 4 9 11 4 18 -29 34
-43 22 -61 26 -61 13z"/>
<path d="M1648 2353 c-37 -15 -49 -35 -27 -48 13 -8 79 36 79 53 0 15 -6 15
-52 -5z"/>
<path d="M4550 2310 c0 -5 17 -21 37 -34 27 -19 40 -23 50 -15 17 15 7 28 -33
45 -39 16 -54 18 -54 4z"/>
<path d="M1676 2279 c-35 -19 -37 -22 -23 -36 14 -15 19 -14 51 11 60 46 42
62 -28 25z"/>
<path d="M2020 2240 c0 -17 58 -75 66 -67 12 12 -18 59 -43 68 -14 5 -23 4
-23 -1z"/>
<path d="M4510 2236 c0 -8 16 -27 36 -42 29 -23 37 -25 45 -13 13 21 12 24
-30 47 -46 26 -51 27 -51 8z"/>
<path d="M1732 2209 c-45 -23 -50 -30 -29 -48 11 -8 23 -3 52 22 47 40 34 54
-23 26z"/>
<path d="M4470 2177 c0 -7 13 -26 30 -42 25 -24 32 -26 46 -15 14 13 14 15 -3
28 -10 7 -30 20 -45 28 -23 12 -28 12 -28 1z"/>
<path d="M1773 2140 c-36 -22 -42 -37 -17 -47 9 -3 27 6 45 23 48 46 31 61
-28 24z"/>
<path d="M4416 2111 c-8 -12 42 -71 59 -71 19 0 29 19 17 33 -18 22 -70 48
-76 38z"/>
<path d="M1821 2072 c-29 -24 -31 -29 -18 -40 12 -11 20 -7 46 18 53 54 31 71
-28 22z"/>
<path d="M2080 2094 c0 -19 27 -48 57 -60 41 -18 49 -14 34 15 -16 29 -91 66
-91 45z"/>
<path d="M4370 2051 c0 -5 14 -23 31 -41 26 -25 34 -29 46 -18 13 11 11 16
-18 40 -33 28 -59 36 -59 19z"/>
<path d="M1878 2011 c-26 -24 -31 -32 -21 -42 10 -10 19 -7 43 16 54 52 34 76
-22 26z"/>
<path d="M4315 1991 c-3 -6 9 -26 26 -46 25 -28 34 -33 46 -24 11 10 10 16 -9
36 -30 32 -55 46 -63 34z"/>
<path d="M1933 1958 c-34 -24 -41 -42 -22 -54 12 -7 69 44 69 63 0 18 -11 16
-47 -9z"/>
<path d="M2210 1951 c0 -14 53 -41 80 -41 25 0 26 16 3 28 -31 17 -83 24 -83
13z"/>
<path d="M4260 1928 c0 -7 11 -26 24 -43 23 -28 26 -29 41 -14 15 15 14 18
-15 43 -34 28 -50 33 -50 14z"/>
<path d="M1997 1900 c-30 -26 -35 -35 -26 -46 16 -20 21 -18 47 21 35 50 23
64 -21 25z"/>
<path d="M4197 1883 c-8 -7 17 -56 38 -73 22 -19 41 0 26 28 -12 22 -56 54
-64 45z"/>
<path d="M2054 1844 c-32 -32 -34 -38 -20 -46 20 -11 34 -2 59 41 26 44 4 47
-39 5z"/>
<path d="M4136 1832 c-9 -14 20 -71 40 -79 9 -3 20 -1 26 5 7 7 -1 22 -24 48
-22 24 -37 33 -42 26z"/>
<path d="M2120 1795 c-29 -30 -31 -36 -20 -50 13 -15 15 -15 28 2 25 34 42 72
34 77 -5 3 -24 -10 -42 -29z"/>
<path d="M4070 1779 c0 -17 40 -79 51 -79 24 0 20 33 -7 61 -29 31 -44 37 -44
18z"/>
<path d="M2185 1749 c-14 -17 -24 -36 -22 -42 7 -23 27 -17 47 15 37 61 20 80
-25 27z"/>
<path d="M4000 1725 c0 -20 28 -75 38 -75 28 1 30 18 6 53 -26 39 -44 48 -44
22z"/>
<path d="M2252 1695 c-24 -33 -23 -55 2 -55 12 0 46 60 46 80 0 21 -26 8 -48
-25z"/>
<path d="M3937 1703 c-3 -5 4 -27 15 -50 17 -37 23 -41 39 -32 19 10 19 12 -8
49 -28 40 -38 47 -46 33z"/>
<path d="M2321 1665 c-22 -33 -23 -65 -1 -65 12 0 50 81 43 93 -8 14 -18 7
-42 -28z"/>
<path d="M3860 1660 c0 -16 32 -90 39 -90 3 0 12 4 20 9 10 7 11 13 1 32 -24
46 -60 76 -60 49z"/>
<path d="M2391 1626 c-25 -40 -26 -52 -5 -60 11 -4 19 4 30 29 28 67 11 89
-25 31z"/>
<path d="M3800 1621 c0 -32 21 -81 35 -81 25 0 26 20 4 60 -24 43 -39 51 -39
21z"/>
<path d="M2470 1595 c-22 -36 -21 -70 3 -63 17 6 40 79 29 90 -6 6 -18 -5 -32
-27z"/>
<path d="M3724 1595 c-8 -21 15 -85 31 -85 25 0 26 19 5 60 -22 44 -28 48 -36
25z"/>
<path d="M2535 1560 c-14 -31 -16 -43 -7 -52 8 -8 15 -8 21 -2 12 12 30 81 23
88 -12 12 -20 5 -37 -34z"/>
<path d="M3640 1561 c0 -32 21 -81 35 -81 23 0 24 14 5 58 -20 44 -40 56 -40
23z"/>
<path d="M2616 1536 c-20 -43 -20 -52 0 -60 23 -9 26 -4 31 49 7 54 -8 59 -31
11z"/>
<path d="M3575 1547 c-4 -9 -4 -33 -1 -52 5 -26 12 -35 26 -35 25 0 25 14 1
65 -15 33 -20 37 -26 22z"/>
<path d="M2688 1506 c-15 -41 -15 -45 -1 -51 17 -6 33 10 33 35 0 8 3 25 6 38
12 42 -21 24 -38 -22z"/>
<path d="M3505 1528 c-12 -29 -1 -83 18 -86 21 -4 22 29 3 73 -11 24 -15 27
-21 13z"/>
<path d="M2774 1494 c-17 -39 -13 -64 9 -64 14 0 27 40 27 81 0 31 -20 21 -36
-17z"/>
<path d="M2851 1489 c-17 -48 -14 -69 9 -69 17 0 20 7 20 50 0 57 -13 65 -29
19z"/>
<path d="M3414 1505 c-4 -8 -3 -31 0 -50 5 -26 12 -35 26 -35 23 0 24 9 8 61
-12 41 -25 49 -34 24z"/>
<path d="M2925 1478 c-3 -18 -9 -41 -11 -50 -4 -13 0 -18 15 -18 22 0 35 31
29 71 -5 35 -25 34 -33 -3z"/>
<path d="M3340 1460 c0 -43 3 -50 20 -50 23 0 27 31 10 74 -15 42 -30 30 -30
-24z"/>
<path d="M3017 1493 c-3 -5 -8 -27 -12 -50 -6 -39 -5 -43 14 -43 19 0 21 6 21
50 0 44 -11 64 -23 43z"/>
<path d="M3260 1450 c0 -44 2 -50 21 -50 19 0 20 4 14 43 -8 48 -12 57 -26 57
-5 0 -9 -22 -9 -50z"/>
<path d="M3097 1483 c-4 -3 -7 -26 -7 -50 0 -31 4 -43 14 -43 23 0 28 17 21
60 -7 39 -14 47 -28 33z"/>
<path d="M3190 1445 c0 -39 3 -45 20 -45 19 0 20 4 14 38 -8 43 -12 52 -25 52
-5 0 -9 -20 -9 -45z"/>
<path d="M1229 1051 c-163 -52 -272 -166 -308 -322 -19 -82 -13 -217 13 -292
90 -253 392 -365 653 -242 279 131 334 489 111 731 -115 125 -308 177 -469
125z m116 -158 c9 -133 2 -690 -8 -700 -4 -3 -9 -4 -11 -2 -4 3 -10 758 -7
807 1 6 5 12 10 12 5 0 12 -53 16 -117z m85 -305 c0 -347 -2 -398 -15 -398 -8
0 -15 6 -16 13 -3 73 3 706 8 750 14 139 23 7 23 -365z m-140 12 l0 -400 -25
10 c-86 33 -152 96 -195 184 -104 219 -24 506 165 592 58 26 55 47 55 -386z
m257 367 c152 -79 221 -401 129 -602 -32 -71 -72 -114 -131 -141 -93 -44 -85
-78 -85 375 l0 400 28 -8 c16 -5 42 -16 59 -24z"/>
<path d="M2906 1054 c-224 -48 -346 -200 -346 -431 0 -139 31 -238 106 -329
120 -148 389 -195 642 -113 48 16 62 25 58 37 -2 10 -7 38 -11 65 -3 26 -9 47
-12 47 -3 0 -28 -21 -55 -46 -70 -65 -127 -89 -214 -88 -63 0 -81 5 -148 38
-213 105 -311 314 -247 524 53 177 181 265 379 264 72 0 92 -4 145 -30 51 -25
69 -41 97 -86 19 -30 38 -52 42 -48 3 4 10 43 13 88 8 95 17 87 -119 109 -113
19 -240 18 -330 -1z"/>
<path d="M5065 1050 c-89 -35 -145 -106 -145 -185 0 -70 37 -123 187 -271 190
-188 215 -243 145 -326 -86 -101 -265 -82 -313 34 -17 40 -29 19 -29 -53 l0
-57 48 -23 c64 -31 177 -32 243 -2 178 80 223 269 96 406 -18 19 -69 66 -113
105 -173 152 -210 272 -102 328 22 12 49 15 94 12 70 -4 102 -25 125 -80 15
-37 24 -24 33 48 l6 52 -40 16 c-56 22 -171 20 -235 -4z"/>
<path d="M2056 1053 l-219 -3 29 -31 29 -30 3 -389 3 -388 -32 -36 -31 -36
117 0 117 0 -31 29 -31 29 2 199 3 198 92 0 c87 0 93 -1 131 -32 l39 -32 7 66
c4 36 5 68 2 70 -2 2 -30 0 -62 -6 -63 -12 -156 -14 -191 -5 -23 6 -23 8 -23
176 l0 170 106 -4 106 -3 29 -34 c16 -19 31 -32 34 -30 5 5 25 102 25 120 0 5
-8 8 -17 7 -10 -2 -117 -4 -237 -5z"/>
<path d="M4072 1048 c3 -7 11 -40 18 -72 l12 -58 18 30 c28 46 50 53 158 50
l97 -3 0 -397 0 -397 -29 -30 -30 -31 120 0 119 0 -32 26 -33 25 0 406 0 405
104 -4 c99 -3 106 -5 134 -31 l29 -28 16 43 c29 75 26 81 -40 72 -72 -10 -423
-10 -562 0 -86 6 -103 5 -99 -6z"/>
<path d="M3730 973 c-41 -99 -124 -317 -206 -547 -77 -212 -84 -227 -126 -260
l-33 -26 110 0 c109 1 110 1 88 19 -13 11 -23 30 -23 43 0 12 20 82 43 153
l43 130 131 3 130 3 56 -153 55 -153 -26 -22 -27 -22 133 -1 134 0 -43 33
c-40 30 -51 49 -136 247 -50 118 -129 308 -175 422 -46 114 -86 208 -90 208
-3 0 -21 -35 -38 -77z m73 -220 c14 -38 35 -97 45 -133 l20 -65 -105 -3 c-58
-1 -107 -1 -110 1 -2 2 20 68 49 145 37 100 55 138 63 132 7 -6 23 -40 38 -77z"/>
</g>
</svg>
